<?xml version="1.0" encoding="utf-8"?>
<!-- Generator: Adobe Illustrator 26.0.0, SVG Export Plug-In . SVG Version: 6.00 Build 0)  -->
<svg version="1.1" id="Capa_1" xmlns="http://www.w3.org/2000/svg" xmlns:xlink="http://www.w3.org/1999/xlink" x="0px" y="0px"
	 viewBox="0 0 30 22" style="enable-background:new 0 0 30 22;" xml:space="preserve">
<style type="text/css">
	.st0{fill:url(#SVGID_1_);}
	.st1{fill:url(#SVGID_00000163779058868812125380000012410647557464697754_);}
</style>
<g>
	<linearGradient id="SVGID_1_" gradientUnits="userSpaceOnUse" x1="12.1197" y1="15.7497" x2="20.5131" y2="1.2119">
		<stop  offset="0" style="stop-color:#FFFFFF"/>
		<stop  offset="1" style="stop-color:#F0F0F0"/>
	</linearGradient>
	<path class="st0" d="M25.6,11.3l-5.1-9.8c-0.5-1-1.8-1.2-2.6-0.5c-0.8,0.6-1.8,1-2.9,1c-1.4,0-2.7-0.7-3.5-1.7
		c-0.4-0.5-1.1-0.4-1.4,0.2L4.4,11.3H25.6z"/>
	
		<linearGradient id="SVGID_00000070824279336576209220000011958732398620441241_" gradientUnits="userSpaceOnUse" x1="10.6889" y1="27.4479" x2="20.75" y2="10.0215">
		<stop  offset="0" style="stop-color:#FFFFFF"/>
		<stop  offset="1" style="stop-color:#F0F0F0"/>
	</linearGradient>
	<path style="fill:url(#SVGID_00000070824279336576209220000011958732398620441241_);" d="M29.8,19.5l-3.1-6.1H3.3l-3.1,6.1
		C-0.4,20.6,0.4,22,1.7,22h5.8c0.6,0,1.2-0.4,1.5-0.9l0.6-1.2h10.6l0.6,1.2c0.3,0.6,0.9,0.9,1.5,0.9h5.8
		C29.6,22,30.4,20.6,29.8,19.5z"/>
</g>
</svg>
